<svg id="Capa_1" data-name="Capa 1" xmlns="http://www.w3.org/2000/svg" viewBox="0 0 158.4 158.4"><defs><style>.cls-1{fill:#adadad;}</style></defs><path class="cls-1" d="M121.51,17.86a48.26,48.26,0,0,1,20.6,18.75q7.23,12.15,7.38,28.11A66,66,0,0,1,145.25,89a44.63,44.63,0,0,1-12.74,18.59,30.36,30.36,0,0,1-20,7.22q-8.13.07-13.18-3.24a15.13,15.13,0,0,1-6.5-9.57,31.76,31.76,0,0,1-11.65,9.73,34.17,34.17,0,0,1-15.15,3.66q-11.91.12-18.7-7T40.44,89a50.16,50.16,0,0,1,4.66-22A41.94,41.94,0,0,1,58.41,50.6a32.51,32.51,0,0,1,19.35-6.36q13.47-.12,18.56,9.23l1.33-8.15L116,45.15l-7,42.33a34.07,34.07,0,0,0-.42,5.48q0,3.77,1.61,5.62c1.06,1.24,2.84,1.86,5.34,1.83q5.64,0,9.42-5.41a38,38,0,0,0,5.68-13.35,67.7,67.7,0,0,0,1.81-16q-.18-18.93-11.86-29.24T87.77,26.31a62.28,62.28,0,0,0-32.47,9A61.55,61.55,0,0,0,32.73,59.14a68,68,0,0,0-7.91,33.34Q25,111.88,36.6,122.27t32.73,10.19q15.18-.15,26.72-5.73l3.26,14.38a84.41,84.41,0,0,1-33,6.56q-17.54.17-30.74-6.37a48.38,48.38,0,0,1-20.52-18.68Q7.76,110.47,7.62,94.35A82.74,82.74,0,0,1,18,52.46,77.8,77.8,0,0,1,47.43,22.61q18.92-11,42.56-11.2Q108.14,11.25,121.51,17.86ZM83.09,95.7a23,23,0,0,0,7.35-8.84A25.84,25.84,0,0,0,93.07,75.1Q93,68.53,89.38,64.49t-10.06-4a15.81,15.81,0,0,0-10.14,3.61,23.34,23.34,0,0,0-6.73,9.23,29.93,29.93,0,0,0-2.32,11.91q.06,6.42,3.23,10.15t9.42,3.67A17.63,17.63,0,0,0,83.09,95.7Z"/></svg>