<svg id="Capa_1" data-name="Capa 1" xmlns="http://www.w3.org/2000/svg" xmlns:xlink="http://www.w3.org/1999/xlink" viewBox="0 0 158.4 158.4"><defs><style>.cls-1{fill:none;}.cls-2{clip-path:url(#clip-path);}.cls-3{fill:#adadad;}</style><clipPath id="clip-path"><rect class="cls-1" x="0.97" y="16.6" width="156.46" height="121.2"/></clipPath></defs><g class="cls-2"><path class="cls-3" d="M133.42,27.39a129.67,129.67,0,0,0-31.85-9.88.5.5,0,0,0-.51.25,88.34,88.34,0,0,0-4,8.14,119.14,119.14,0,0,0-35.77,0,83.13,83.13,0,0,0-4-8.14.51.51,0,0,0-.51-.25,129,129,0,0,0-31.85,9.88.46.46,0,0,0-.21.18C4.45,57.88-1.11,87.43,1.62,116.63a.51.51,0,0,0,.2.36,129.6,129.6,0,0,0,39.07,19.75.51.51,0,0,0,.55-.18,92.5,92.5,0,0,0,8-13,.49.49,0,0,0-.27-.69A84.42,84.42,0,0,1,37,117.05a.51.51,0,0,1-.05-.83c.82-.61,1.65-1.25,2.43-1.9a.5.5,0,0,1,.5-.07c25.61,11.7,53.33,11.7,78.63,0a.49.49,0,0,1,.52.07c.78.64,1.6,1.29,2.43,1.9a.5.5,0,0,1,0,.83,80,80,0,0,1-12.21,5.82.49.49,0,0,0-.26.69,104.73,104.73,0,0,0,8,13,.51.51,0,0,0,.55.18A129.07,129.07,0,0,0,156.55,117a.5.5,0,0,0,.21-.36c3.26-33.75-5.47-63.06-23.14-89A.37.37,0,0,0,133.42,27.39ZM53.25,98.85c-7.71,0-14.06-7.08-14.06-15.77s6.23-15.77,14.06-15.77,14.19,7.14,14.06,15.77S61.09,98.85,53.25,98.85Zm52,0c-7.71,0-14.06-7.08-14.06-15.77s6.23-15.77,14.06-15.77,14.19,7.14,14.06,15.77S113.14,98.85,105.24,98.85Z"/></g></svg>